<mxfile host="app.diagrams.net" modified="2022-07-27T07:22:34.339Z" agent="5.0 (Macintosh; Intel Mac OS X 10_15_7) AppleWebKit/605.1.15 (KHTML, like Gecko) Version/15.5 Safari/605.1.15" etag="Xnkk63vC7eOqLivoSt8p" version="20.1.3" type="github">
  <diagram id="qRUXRNMxy6TXU4l3sdik" name="第 1 页">
    <mxGraphModel dx="1426" dy="825" grid="1" gridSize="10" guides="1" tooltips="1" connect="1" arrows="1" fold="1" page="1" pageScale="1" pageWidth="827" pageHeight="1169" math="0" shadow="0">
      <root>
        <mxCell id="0" />
        <mxCell id="1" parent="0" />
        <mxCell id="DMQOF9hzb-ZRpQh1e3Ro-1" value="" style="shape=ext;double=1;rounded=0;whiteSpace=wrap;html=1;labelBackgroundColor=#FFFFFF;fontFamily=Helvetica;fontSize=18;fontColor=#333333;fillColor=#f5f5f5;strokeColor=#666666;" vertex="1" parent="1">
          <mxGeometry x="20" y="20" width="1040" height="510" as="geometry" />
        </mxCell>
        <mxCell id="DMQOF9hzb-ZRpQh1e3Ro-2" value="RPC" style="text;strokeColor=none;fillColor=none;html=1;fontSize=24;fontStyle=1;verticalAlign=middle;align=center;labelBackgroundColor=#FFFFFF;fontFamily=Helvetica;fontColor=#000000;" vertex="1" parent="1">
          <mxGeometry x="20" y="20" width="100" height="40" as="geometry" />
        </mxCell>
        <mxCell id="DMQOF9hzb-ZRpQh1e3Ro-11" style="edgeStyle=orthogonalEdgeStyle;rounded=0;orthogonalLoop=1;jettySize=auto;html=1;exitX=0.25;exitY=1;exitDx=0;exitDy=0;fontFamily=Helvetica;fontSize=18;fontColor=#000000;" edge="1" parent="1" source="DMQOF9hzb-ZRpQh1e3Ro-3" target="DMQOF9hzb-ZRpQh1e3Ro-10">
          <mxGeometry relative="1" as="geometry" />
        </mxCell>
        <mxCell id="DMQOF9hzb-ZRpQh1e3Ro-13" style="edgeStyle=orthogonalEdgeStyle;rounded=0;orthogonalLoop=1;jettySize=auto;html=1;exitX=0.75;exitY=1;exitDx=0;exitDy=0;entryX=0.5;entryY=0;entryDx=0;entryDy=0;fontFamily=Helvetica;fontSize=18;fontColor=#000000;" edge="1" parent="1" source="DMQOF9hzb-ZRpQh1e3Ro-3" target="DMQOF9hzb-ZRpQh1e3Ro-7">
          <mxGeometry relative="1" as="geometry" />
        </mxCell>
        <mxCell id="DMQOF9hzb-ZRpQh1e3Ro-3" value="StatTask" style="shape=ext;double=1;rounded=1;whiteSpace=wrap;html=1;labelBackgroundColor=#FFFFFF;fontFamily=Helvetica;fontSize=18;fontColor=#000000;" vertex="1" parent="1">
          <mxGeometry x="140" y="90" width="120" height="80" as="geometry" />
        </mxCell>
        <mxCell id="DMQOF9hzb-ZRpQh1e3Ro-15" style="edgeStyle=orthogonalEdgeStyle;rounded=0;orthogonalLoop=1;jettySize=auto;html=1;exitX=0.5;exitY=1;exitDx=0;exitDy=0;fontFamily=Helvetica;fontSize=18;fontColor=#000000;" edge="1" parent="1" source="DMQOF9hzb-ZRpQh1e3Ro-4" target="DMQOF9hzb-ZRpQh1e3Ro-14">
          <mxGeometry relative="1" as="geometry" />
        </mxCell>
        <mxCell id="DMQOF9hzb-ZRpQh1e3Ro-4" value="DeleteTask" style="shape=ext;double=1;rounded=1;whiteSpace=wrap;html=1;labelBackgroundColor=#FFFFFF;fontFamily=Helvetica;fontSize=18;fontColor=#000000;" vertex="1" parent="1">
          <mxGeometry x="354" y="90" width="120" height="80" as="geometry" />
        </mxCell>
        <mxCell id="DMQOF9hzb-ZRpQh1e3Ro-17" style="edgeStyle=orthogonalEdgeStyle;rounded=0;orthogonalLoop=1;jettySize=auto;html=1;exitX=0.5;exitY=1;exitDx=0;exitDy=0;entryX=0.5;entryY=0;entryDx=0;entryDy=0;fontFamily=Helvetica;fontSize=18;fontColor=#000000;" edge="1" parent="1" source="DMQOF9hzb-ZRpQh1e3Ro-5" target="DMQOF9hzb-ZRpQh1e3Ro-16">
          <mxGeometry relative="1" as="geometry" />
        </mxCell>
        <mxCell id="DMQOF9hzb-ZRpQh1e3Ro-5" value="importTask" style="shape=ext;double=1;rounded=1;whiteSpace=wrap;html=1;labelBackgroundColor=#FFFFFF;fontFamily=Helvetica;fontSize=18;fontColor=#000000;" vertex="1" parent="1">
          <mxGeometry x="552.5" y="90" width="120" height="80" as="geometry" />
        </mxCell>
        <mxCell id="DMQOF9hzb-ZRpQh1e3Ro-6" value="Local内存检查是否有已完成task" style="shape=ext;double=1;rounded=1;whiteSpace=wrap;html=1;labelBackgroundColor=#FFFFFF;fontFamily=Helvetica;fontSize=18;fontColor=#000000;" vertex="1" parent="1">
          <mxGeometry x="40" y="310" width="170" height="80" as="geometry" />
        </mxCell>
        <mxCell id="DMQOF9hzb-ZRpQh1e3Ro-7" value="Schedule rpc" style="shape=ext;double=1;rounded=1;whiteSpace=wrap;html=1;labelBackgroundColor=#FFFFFF;fontFamily=Helvetica;fontSize=18;fontColor=#000000;" vertex="1" parent="1">
          <mxGeometry x="220" y="200" width="120" height="80" as="geometry" />
        </mxCell>
        <mxCell id="DMQOF9hzb-ZRpQh1e3Ro-12" style="edgeStyle=orthogonalEdgeStyle;rounded=0;orthogonalLoop=1;jettySize=auto;html=1;exitX=0.5;exitY=1;exitDx=0;exitDy=0;entryX=0.453;entryY=0.013;entryDx=0;entryDy=0;entryPerimeter=0;fontFamily=Helvetica;fontSize=18;fontColor=#000000;" edge="1" parent="1" source="DMQOF9hzb-ZRpQh1e3Ro-10" target="DMQOF9hzb-ZRpQh1e3Ro-6">
          <mxGeometry relative="1" as="geometry" />
        </mxCell>
        <mxCell id="DMQOF9hzb-ZRpQh1e3Ro-10" value="如果检查本地" style="shape=ext;double=1;rounded=1;whiteSpace=wrap;html=1;labelBackgroundColor=#FFFFFF;fontFamily=Helvetica;fontSize=18;fontColor=#000000;" vertex="1" parent="1">
          <mxGeometry x="65" y="200" width="120" height="80" as="geometry" />
        </mxCell>
        <mxCell id="DMQOF9hzb-ZRpQh1e3Ro-14" value="删除local内存中的信息" style="shape=ext;double=1;rounded=1;whiteSpace=wrap;html=1;labelBackgroundColor=#FFFFFF;fontFamily=Helvetica;fontSize=18;fontColor=#000000;" vertex="1" parent="1">
          <mxGeometry x="354" y="220" width="120" height="80" as="geometry" />
        </mxCell>
        <mxCell id="DMQOF9hzb-ZRpQh1e3Ro-20" style="edgeStyle=orthogonalEdgeStyle;rounded=0;orthogonalLoop=1;jettySize=auto;html=1;exitX=0.5;exitY=1;exitDx=0;exitDy=0;entryX=0.5;entryY=0;entryDx=0;entryDy=0;fontFamily=Helvetica;fontSize=18;fontColor=#000000;" edge="1" parent="1" source="DMQOF9hzb-ZRpQh1e3Ro-16" target="DMQOF9hzb-ZRpQh1e3Ro-19">
          <mxGeometry relative="1" as="geometry" />
        </mxCell>
        <mxCell id="DMQOF9hzb-ZRpQh1e3Ro-16" value="检查local内存是否已加载task&lt;br&gt;没有需要加载" style="shape=ext;double=1;rounded=1;whiteSpace=wrap;html=1;labelBackgroundColor=#FFFFFF;fontFamily=Helvetica;fontSize=18;fontColor=#000000;" vertex="1" parent="1">
          <mxGeometry x="480" y="220" width="265" height="80" as="geometry" />
        </mxCell>
        <mxCell id="DMQOF9hzb-ZRpQh1e3Ro-19" value="schedule rpc" style="shape=ext;double=1;rounded=1;whiteSpace=wrap;html=1;labelBackgroundColor=#FFFFFF;fontFamily=Helvetica;fontSize=18;fontColor=#000000;" vertex="1" parent="1">
          <mxGeometry x="552.5" y="340" width="120" height="80" as="geometry" />
        </mxCell>
        <mxCell id="DMQOF9hzb-ZRpQh1e3Ro-24" style="edgeStyle=orthogonalEdgeStyle;rounded=0;orthogonalLoop=1;jettySize=auto;html=1;exitX=0.25;exitY=1;exitDx=0;exitDy=0;entryX=0.5;entryY=0;entryDx=0;entryDy=0;fontFamily=Helvetica;fontSize=18;fontColor=#000000;" edge="1" parent="1" source="DMQOF9hzb-ZRpQh1e3Ro-21" target="DMQOF9hzb-ZRpQh1e3Ro-22">
          <mxGeometry relative="1" as="geometry" />
        </mxCell>
        <mxCell id="DMQOF9hzb-ZRpQh1e3Ro-25" style="edgeStyle=orthogonalEdgeStyle;rounded=0;orthogonalLoop=1;jettySize=auto;html=1;exitX=0.75;exitY=1;exitDx=0;exitDy=0;fontFamily=Helvetica;fontSize=18;fontColor=#000000;" edge="1" parent="1" source="DMQOF9hzb-ZRpQh1e3Ro-21" target="DMQOF9hzb-ZRpQh1e3Ro-23">
          <mxGeometry relative="1" as="geometry" />
        </mxCell>
        <mxCell id="DMQOF9hzb-ZRpQh1e3Ro-21" value="exportTask" style="shape=ext;double=1;rounded=1;whiteSpace=wrap;html=1;labelBackgroundColor=#FFFFFF;fontFamily=Helvetica;fontSize=18;fontColor=#000000;" vertex="1" parent="1">
          <mxGeometry x="840" y="90" width="120" height="80" as="geometry" />
        </mxCell>
        <mxCell id="DMQOF9hzb-ZRpQh1e3Ro-22" value="从local获取local" style="shape=ext;double=1;rounded=1;whiteSpace=wrap;html=1;labelBackgroundColor=#FFFFFF;fontFamily=Helvetica;fontSize=18;fontColor=#000000;" vertex="1" parent="1">
          <mxGeometry x="770" y="220" width="120" height="80" as="geometry" />
        </mxCell>
        <mxCell id="DMQOF9hzb-ZRpQh1e3Ro-23" value="从peers下载&lt;br&gt;禁止回源" style="shape=ext;double=1;rounded=1;whiteSpace=wrap;html=1;labelBackgroundColor=#FFFFFF;fontFamily=Helvetica;fontSize=18;fontColor=#000000;" vertex="1" parent="1">
          <mxGeometry x="900" y="220" width="120" height="80" as="geometry" />
        </mxCell>
      </root>
    </mxGraphModel>
  </diagram>
</mxfile>
